<svg xmlns="http://www.w3.org/2000/svg" xmlns:xlink="http://www.w3.org/1999/xlink" width="100%" height="100%" version="1.1" viewBox="0 0 250 280" xml:space="preserve" style="fill-rule:evenodd;clip-rule:evenodd;stroke-linecap:round;stroke-linejoin:round;stroke-miterlimit:1.5"><g id="Artboard1" transform="matrix(1,0,0,1,-30,-10)"><rect width="250" height="280" x="30" y="10" style="fill:none"/><g transform="matrix(1.04132,0,0,1,-12.4792,19.9994)"><rect width="197.091" height="244.479" x="60" y="5.521" style="fill:#fff;stroke:#e79f78;stroke-width:.83px"/></g><g transform="matrix(0.725554,0,0,0.818067,36.4668,45.4833)"><rect width="197.091" height="244.479" x="60" y="5.521" style="fill:#fff;stroke:#46ce37;stroke-width:1.1px"/></g><g><path d="M77.447,109.486L77.447,105.059L378.06,105.059L378.06,96.217L389.997,107.272L378.06,118.328L378.06,109.486L77.447,109.486Z" transform="matrix(0.639897,0,0,0.464026,-9.55798,220.222)"/></g><g><path d="M77.447,109.486L77.447,105.059L378.06,105.059L378.06,96.217L389.997,107.272L378.06,118.328L378.06,109.486L77.447,109.486Z" transform="matrix(0.000410549,-0.639897,0.464026,0.000297713,0.0659808,329.525)"/></g><g><text x="69.555" y="240.594" transform="matrix(1,0,0,1,-15.9573,23.8072)" style="font-family:'OpenSans','Open Sans',sans-serif;font-size:16px">(0, 0)</text></g><g><text x="255.238" y="250.316" transform="matrix(1,0,0,1,-17.1461,18.2553)" style="font-family:'OpenSans','Open Sans',sans-serif;font-size:12px">+x</text></g><g><text x="60.073" y="50.31" transform="matrix(1,0,0,1,-4.08503,32.8073)" style="font-family:'OpenSans','Open Sans',sans-serif;font-size:12px">+y</text></g><g><text x="79.936" y="19.731" transform="matrix(1,0,0,1,-27.6942,21.2695)" style="font-family:'OpenSans','Open Sans',sans-serif;font-size:16px;fill:#e79f78">MediaBo<tspan x="145.819" y="19.731">x</tspan></text></g><g><text x="91.479" y="53.402" transform="matrix(1,0,0,1,-8.74105,12.7539)" style="font-family:'OpenSans','Open Sans',sans-serif;font-size:16px;fill:#46ce37">Cr<tspan x="107.784 117.448" y="53.402 53.402">op</tspan>Bo<tspan x="146.964" y="53.402">x</tspan></text></g><g><text x="117.884" y="123.733" transform="matrix(1,0,0,1,-1.87972,5.22848)" style="font-family:'OpenSans','Open Sans',sans-serif;font-size:12px">Page te<tspan x="158.934 165.222" y="123.733 123.733">xt</tspan></text></g></g></svg>